{
	"asset":{
		"generator":"Khronos glTF Blender I/O v4.0.44",
		"version":"2.0"
	},
	"scene":0,
	"scenes":[
		{
			"name":"Scene",
			"nodes":[
				0,
				1,
				2,
				3,
				4,
				5,
				6,
				7,
				8,
				9
			]
		}
	],
	"nodes":[
		{
			"mesh":0,
			"name":"middle",
			"scale":[
				0.4000000059604645,
				2.75,
				2
			]
		},
		{
			"mesh":1,
			"name":"right",
			"scale":[
				0.4000000059604645,
				2.25,
				1.5
			],
			"translation":[
				0,
				-0.5,
				-3.5
			]
		},
		{
			"mesh":2,
			"name":"left",
			"scale":[
				0.4000000059604645,
				2.25,
				1.5
			],
			"translation":[
				0,
				-0.5,
				3.5
			]
		},
		{
			"mesh":3,
			"name":"foundation",
			"scale":[
				0.4099999964237213,
				0.41555315256118774,
				5.040000915527344
			],
			"translation":[
				0,
				-3.1472811698913574,
				0
			]
		},
		{
			"mesh":4,
			"name":"middle roof",
			"scale":[
				1,
				0.3439525365829468,
				2.081653118133545
			],
			"translation":[
				0,
				2.8586552143096924,
				0
			]
		},
		{
			"mesh":5,
			"name":"right roof",
			"scale":[
				1,
				0.3439525365829468,
				1.5385740995407104
			],
			"translation":[
				0,
				2.080453872680664,
				-3.4993896484375
			]
		},
		{
			"mesh":6,
			"name":"left roof",
			"scale":[
				1,
				0.3439525365829468,
				1.5385740995407104
			],
			"translation":[
				0,
				2.080453872680664,
				3.546079635620117
			]
		},
		{
			"mesh":7,
			"name":"middle cylinder",
			"rotation":[
				0.7071068286895752,
				0,
				0,
				0.7071068286895752
			],
			"scale":[
				0.09238643944263458,
				2.0999999046325684,
				0.08504273742437363
			],
			"translation":[
				0,
				3.2745656967163086,
				0
			]
		},
		{
			"mesh":8,
			"name":"left cylinder",
			"rotation":[
				0.7071068286895752,
				0,
				0,
				0.7071068286895752
			],
			"scale":[
				0.09238643944263458,
				1.649999976158142,
				0.08504273742437363
			],
			"translation":[
				0,
				2.4300589561462402,
				-3.4510998725891113
			]
		},
		{
			"mesh":9,
			"name":"left cylinder.001",
			"rotation":[
				0.7071068286895752,
				0,
				0,
				0.7071068286895752
			],
			"scale":[
				0.09238643944263458,
				1.590000033378601,
				0.08504273742437363
			],
			"translation":[
				0,
				2.4300589561462402,
				3.556957960128784
			]
		}
	],
	"materials":[
		{
			"doubleSided":true,
			"name":"wall l",
			"pbrMetallicRoughness":{
				"baseColorTexture":{
					"index":0
				},
				"metallicFactor":0,
				"roughnessFactor":0.5
			}
		},
		{
			"doubleSided":true,
			"name":"Material",
			"pbrMetallicRoughness":{
				"baseColorTexture":{
					"index":1
				},
				"metallicFactor":0,
				"roughnessFactor":0.5
			}
		},
		{
			"doubleSided":true,
			"name":"cyl",
			"pbrMetallicRoughness":{
				"baseColorTexture":{
					"index":2
				},
				"metallicFactor":0,
				"roughnessFactor":0.5
			}
		},
		{
			"doubleSided":true,
			"name":"Material.001",
			"pbrMetallicRoughness":{
				"baseColorTexture":{
					"index":3
				},
				"metallicFactor":0,
				"roughnessFactor":0.5
			}
		},
		{
			"doubleSided":true,
			"name":"cyl3",
			"pbrMetallicRoughness":{
				"baseColorTexture":{
					"index":4
				},
				"metallicFactor":0,
				"roughnessFactor":0.5
			}
		}
	],
	"meshes":[
		{
			"name":"Cube.001",
			"primitives":[
				{
					"attributes":{
						"POSITION":0,
						"NORMAL":1,
						"TEXCOORD_0":2
					},
					"indices":3,
					"material":0
				}
			]
		},
		{
			"name":"Cube.002",
			"primitives":[
				{
					"attributes":{
						"POSITION":4,
						"NORMAL":5,
						"TEXCOORD_0":6
					},
					"indices":3,
					"material":0
				}
			]
		},
		{
			"name":"Cube.003",
			"primitives":[
				{
					"attributes":{
						"POSITION":7,
						"NORMAL":8,
						"TEXCOORD_0":9
					},
					"indices":3,
					"material":0
				}
			]
		},
		{
			"name":"Cube.004",
			"primitives":[
				{
					"attributes":{
						"POSITION":10,
						"NORMAL":11,
						"TEXCOORD_0":12
					},
					"indices":13,
					"material":0
				}
			]
		},
		{
			"name":"Cube.005",
			"primitives":[
				{
					"attributes":{
						"POSITION":14,
						"NORMAL":15,
						"TEXCOORD_0":16
					},
					"indices":3,
					"material":1
				}
			]
		},
		{
			"name":"Cube.006",
			"primitives":[
				{
					"attributes":{
						"POSITION":17,
						"NORMAL":18,
						"TEXCOORD_0":19
					},
					"indices":3,
					"material":1
				}
			]
		},
		{
			"name":"Cube.007",
			"primitives":[
				{
					"attributes":{
						"POSITION":20,
						"NORMAL":21,
						"TEXCOORD_0":22
					},
					"indices":3,
					"material":1
				}
			]
		},
		{
			"name":"Cylinder",
			"primitives":[
				{
					"attributes":{
						"POSITION":23,
						"NORMAL":24,
						"TEXCOORD_0":25
					},
					"indices":26,
					"material":2
				}
			]
		},
		{
			"name":"Cylinder.001",
			"primitives":[
				{
					"attributes":{
						"POSITION":27,
						"NORMAL":28,
						"TEXCOORD_0":29
					},
					"indices":26,
					"material":3
				}
			]
		},
		{
			"name":"Cylinder.002",
			"primitives":[
				{
					"attributes":{
						"POSITION":30,
						"NORMAL":31,
						"TEXCOORD_0":32
					},
					"indices":26,
					"material":4
				}
			]
		}
	],
	"textures":[
		{
			"sampler":0,
			"source":0
		},
		{
			"sampler":0,
			"source":1
		},
		{
			"sampler":0,
			"source":2
		},
		{
			"sampler":0,
			"source":2
		},
		{
			"sampler":0,
			"source":2
		}
	],
	"images":[
		{
			"mimeType":"image/jpeg",
			"name":"yellow_brick_diff_4k",
			"uri":"yellow_brick_diff_4k.jpg"
		},
		{
			"mimeType":"image/jpeg",
			"name":"roof_tiles_14_diff_4k",
			"uri":"roof_tiles_14_diff_4k.jpg"
		},
		{
			"mimeType":"image/jpeg",
			"name":"ceramic_roof_01_diff_4k",
			"uri":"ceramic_roof_01_diff_4k.jpg"
		}
	],
	"accessors":[
		{
			"bufferView":0,
			"componentType":5126,
			"count":24,
			"max":[
				1,
				1,
				1
			],
			"min":[
				-1,
				-1,
				-1
			],
			"type":"VEC3"
		},
		{
			"bufferView":1,
			"componentType":5126,
			"count":24,
			"type":"VEC3"
		},
		{
			"bufferView":2,
			"componentType":5126,
			"count":24,
			"type":"VEC2"
		},
		{
			"bufferView":3,
			"componentType":5123,
			"count":36,
			"type":"SCALAR"
		},
		{
			"bufferView":4,
			"componentType":5126,
			"count":24,
			"max":[
				1,
				1,
				1
			],
			"min":[
				-1,
				-1,
				-1
			],
			"type":"VEC3"
		},
		{
			"bufferView":5,
			"componentType":5126,
			"count":24,
			"type":"VEC3"
		},
		{
			"bufferView":6,
			"componentType":5126,
			"count":24,
			"type":"VEC2"
		},
		{
			"bufferView":7,
			"componentType":5126,
			"count":24,
			"max":[
				1,
				1,
				1
			],
			"min":[
				-1,
				-1,
				-1
			],
			"type":"VEC3"
		},
		{
			"bufferView":8,
			"componentType":5126,
			"count":24,
			"type":"VEC3"
		},
		{
			"bufferView":9,
			"componentType":5126,
			"count":24,
			"type":"VEC2"
		},
		{
			"bufferView":10,
			"componentType":5126,
			"count":60,
			"max":[
				1.3232728242874146,
				1,
				1
			],
			"min":[
				-1.2858119010925293,
				-1,
				-1
			],
			"type":"VEC3"
		},
		{
			"bufferView":11,
			"componentType":5126,
			"count":60,
			"type":"VEC3"
		},
		{
			"bufferView":12,
			"componentType":5126,
			"count":60,
			"type":"VEC2"
		},
		{
			"bufferView":13,
			"componentType":5123,
			"count":132,
			"type":"SCALAR"
		},
		{
			"bufferView":14,
			"componentType":5126,
			"count":24,
			"max":[
				0.8872973918914795,
				0.9999999403953552,
				0.9999999403953552
			],
			"min":[
				-0.9085792303085327,
				-0.9999998807907104,
				-0.9999999403953552
			],
			"type":"VEC3"
		},
		{
			"bufferView":15,
			"componentType":5126,
			"count":24,
			"type":"VEC3"
		},
		{
			"bufferView":16,
			"componentType":5126,
			"count":24,
			"type":"VEC2"
		},
		{
			"bufferView":17,
			"componentType":5126,
			"count":24,
			"max":[
				0.8872973918914795,
				0.9999999403953552,
				0.9999999403953552
			],
			"min":[
				-0.9085792303085327,
				-0.9999998807907104,
				-0.9999999403953552
			],
			"type":"VEC3"
		},
		{
			"bufferView":18,
			"componentType":5126,
			"count":24,
			"type":"VEC3"
		},
		{
			"bufferView":19,
			"componentType":5126,
			"count":24,
			"type":"VEC2"
		},
		{
			"bufferView":20,
			"componentType":5126,
			"count":24,
			"max":[
				0.8872973918914795,
				0.9999999403953552,
				0.9999999403953552
			],
			"min":[
				-0.9085792303085327,
				-0.9999998807907104,
				-0.9999999403953552
			],
			"type":"VEC3"
		},
		{
			"bufferView":21,
			"componentType":5126,
			"count":24,
			"type":"VEC3"
		},
		{
			"bufferView":22,
			"componentType":5126,
			"count":24,
			"type":"VEC2"
		},
		{
			"bufferView":23,
			"componentType":5126,
			"count":192,
			"max":[
				1,
				1,
				1
			],
			"min":[
				-1,
				-1,
				-1
			],
			"type":"VEC3"
		},
		{
			"bufferView":24,
			"componentType":5126,
			"count":192,
			"type":"VEC3"
		},
		{
			"bufferView":25,
			"componentType":5126,
			"count":192,
			"type":"VEC2"
		},
		{
			"bufferView":26,
			"componentType":5123,
			"count":372,
			"type":"SCALAR"
		},
		{
			"bufferView":27,
			"componentType":5126,
			"count":192,
			"max":[
				1,
				1,
				1
			],
			"min":[
				-1,
				-1,
				-1
			],
			"type":"VEC3"
		},
		{
			"bufferView":28,
			"componentType":5126,
			"count":192,
			"type":"VEC3"
		},
		{
			"bufferView":29,
			"componentType":5126,
			"count":192,
			"type":"VEC2"
		},
		{
			"bufferView":30,
			"componentType":5126,
			"count":192,
			"max":[
				1,
				1,
				1
			],
			"min":[
				-1,
				-1,
				-1
			],
			"type":"VEC3"
		},
		{
			"bufferView":31,
			"componentType":5126,
			"count":192,
			"type":"VEC3"
		},
		{
			"bufferView":32,
			"componentType":5126,
			"count":192,
			"type":"VEC2"
		}
	],
	"bufferViews":[
		{
			"buffer":0,
			"byteLength":288,
			"byteOffset":0,
			"target":34962
		},
		{
			"buffer":0,
			"byteLength":288,
			"byteOffset":288,
			"target":34962
		},
		{
			"buffer":0,
			"byteLength":192,
			"byteOffset":576,
			"target":34962
		},
		{
			"buffer":0,
			"byteLength":72,
			"byteOffset":768,
			"target":34963
		},
		{
			"buffer":0,
			"byteLength":288,
			"byteOffset":840,
			"target":34962
		},
		{
			"buffer":0,
			"byteLength":288,
			"byteOffset":1128,
			"target":34962
		},
		{
			"buffer":0,
			"byteLength":192,
			"byteOffset":1416,
			"target":34962
		},
		{
			"buffer":0,
			"byteLength":288,
			"byteOffset":1608,
			"target":34962
		},
		{
			"buffer":0,
			"byteLength":288,
			"byteOffset":1896,
			"target":34962
		},
		{
			"buffer":0,
			"byteLength":192,
			"byteOffset":2184,
			"target":34962
		},
		{
			"buffer":0,
			"byteLength":720,
			"byteOffset":2376,
			"target":34962
		},
		{
			"buffer":0,
			"byteLength":720,
			"byteOffset":3096,
			"target":34962
		},
		{
			"buffer":0,
			"byteLength":480,
			"byteOffset":3816,
			"target":34962
		},
		{
			"buffer":0,
			"byteLength":264,
			"byteOffset":4296,
			"target":34963
		},
		{
			"buffer":0,
			"byteLength":288,
			"byteOffset":4560,
			"target":34962
		},
		{
			"buffer":0,
			"byteLength":288,
			"byteOffset":4848,
			"target":34962
		},
		{
			"buffer":0,
			"byteLength":192,
			"byteOffset":5136,
			"target":34962
		},
		{
			"buffer":0,
			"byteLength":288,
			"byteOffset":5328,
			"target":34962
		},
		{
			"buffer":0,
			"byteLength":288,
			"byteOffset":5616,
			"target":34962
		},
		{
			"buffer":0,
			"byteLength":192,
			"byteOffset":5904,
			"target":34962
		},
		{
			"buffer":0,
			"byteLength":288,
			"byteOffset":6096,
			"target":34962
		},
		{
			"buffer":0,
			"byteLength":288,
			"byteOffset":6384,
			"target":34962
		},
		{
			"buffer":0,
			"byteLength":192,
			"byteOffset":6672,
			"target":34962
		},
		{
			"buffer":0,
			"byteLength":2304,
			"byteOffset":6864,
			"target":34962
		},
		{
			"buffer":0,
			"byteLength":2304,
			"byteOffset":9168,
			"target":34962
		},
		{
			"buffer":0,
			"byteLength":1536,
			"byteOffset":11472,
			"target":34962
		},
		{
			"buffer":0,
			"byteLength":744,
			"byteOffset":13008,
			"target":34963
		},
		{
			"buffer":0,
			"byteLength":2304,
			"byteOffset":13752,
			"target":34962
		},
		{
			"buffer":0,
			"byteLength":2304,
			"byteOffset":16056,
			"target":34962
		},
		{
			"buffer":0,
			"byteLength":1536,
			"byteOffset":18360,
			"target":34962
		},
		{
			"buffer":0,
			"byteLength":2304,
			"byteOffset":19896,
			"target":34962
		},
		{
			"buffer":0,
			"byteLength":2304,
			"byteOffset":22200,
			"target":34962
		},
		{
			"buffer":0,
			"byteLength":1536,
			"byteOffset":24504,
			"target":34962
		}
	],
	"samplers":[
		{
			"magFilter":9729,
			"minFilter":9987
		}
	],
	"buffers":[
		{
			"byteLength":26040,
			"uri":"spirit%20screen.bin"
		}
	]
}
